<svg xmlns="http://www.w3.org/2000/svg" width="16" height="16" viewBox="0 0 16 16" fill="none">
  <path d="M1.07107 1.07105C0.361023 1.7811 0.361023 2.93231 1.07107 3.64235L5.57084 8.14212L1.07107 12.6419C0.361023 13.3519 0.361024 14.5031 1.07107 15.2132C1.78111 15.9232 2.93232 15.9232 3.64236 15.2132L8.14214 10.7134L12.6419 15.2132C13.352 15.9232 14.5032 15.9232 15.2132 15.2132C15.9232 14.5031 15.9232 13.3519 15.2132 12.6419L10.7134 8.14212L15.2132 3.64235C15.9232 2.93231 15.9232 1.7811 15.2132 1.07105C14.5032 0.36101 13.352 0.361007 12.6419 1.07105L8.14213 5.57082L3.64236 1.07105C2.93232 0.361008 1.78111 0.36101 1.07107 1.07105Z" fill="#F8F7FF"/>
</svg>